<svg width="18" height="18" viewBox="0 0 18 18" fill="none" xmlns="http://www.w3.org/2000/svg">
<path fill-rule="evenodd" clip-rule="evenodd" d="M7.27506 14C3.59317 14 0.608398 11.0152 0.608398 7.33332C0.608398 3.65142 3.59317 0.666656 7.27506 0.666656C10.957 0.666656 13.9417 3.65142 13.9417 7.33332C13.9417 8.87392 13.4192 10.2925 12.5416 11.4214L17.031 15.9107L15.8525 17.0892L11.3631 12.5999C10.2342 13.4774 8.81566 14 7.27506 14ZM12.2751 7.33332C12.2751 10.0947 10.0365 12.3333 7.27506 12.3333C4.51364 12.3333 2.27506 10.0947 2.27506 7.33332C2.27506 4.5719 4.51364 2.33332 7.27506 2.33332C10.0365 2.33332 12.2751 4.5719 12.2751 7.33332Z" fill="#8A94A4"/>
</svg>
